<?xml version="1.0" encoding="utf-8"?>
<!-- Generator: Adobe Illustrator 27.0.0, SVG Export Plug-In . SVG Version: 6.00 Build 0)  -->
<svg version="1.1" id="Layer_1" xmlns="http://www.w3.org/2000/svg" xmlns:xlink="http://www.w3.org/1999/xlink" x="0px" y="0px"
	 viewBox="0 0 100 100" style="enable-background:new 0 0 100 100;" xml:space="preserve">
<style type="text/css">
	.st0{fill:#FFFFFF;}
</style>
<g>
	<path class="st0" d="M84,18.8c-6.3-2.9-13-5-20-6.2c-0.1,0-0.3,0-0.3,0.2c-0.9,1.5-1.8,3.5-2.5,5.1c-7.6-1.1-15.1-1.1-22.5,0
		c-0.7-1.6-1.7-3.6-2.5-5.1c-0.1-0.1-0.2-0.2-0.3-0.2c-7,1.2-13.7,3.3-20,6.2c-0.1,0-0.1,0.1-0.1,0.1C3.1,37.9-0.4,56.5,1.3,74.8
		c0,0.1,0.1,0.2,0.1,0.2c8.4,6.2,16.5,9.9,24.5,12.4c0.1,0,0.3,0,0.3-0.1c1.9-2.6,3.6-5.3,5-8.2c0.1-0.2,0-0.4-0.2-0.4
		c-2.7-1-5.2-2.2-7.7-3.7c-0.2-0.1-0.2-0.4,0-0.5c0.5-0.4,1-0.8,1.5-1.2c0.1-0.1,0.2-0.1,0.3,0c16.1,7.3,33.5,7.3,49.4,0
		c0.1-0.1,0.2,0,0.3,0c0.5,0.4,1,0.8,1.5,1.2c0.2,0.1,0.2,0.4,0,0.5c-2.4,1.4-5,2.6-7.7,3.6c-0.2,0.1-0.3,0.3-0.2,0.4
		c1.5,2.9,3.2,5.6,5,8.2c0.1,0.1,0.2,0.2,0.3,0.1c8-2.5,16.2-6.2,24.6-12.4c0.1-0.1,0.1-0.1,0.1-0.2c2-21.2-3.4-39.6-14.5-55.9
		C84.1,18.8,84.1,18.8,84,18.8z M33.7,63.6c-4.8,0-8.8-4.4-8.8-9.9s3.9-9.9,8.8-9.9c5,0,8.9,4.5,8.8,9.9
		C42.5,59.2,38.6,63.6,33.7,63.6z M66.4,63.6c-4.8,0-8.8-4.4-8.8-9.9s3.9-9.9,8.8-9.9c5,0,8.9,4.5,8.8,9.9
		C75.2,59.2,71.3,63.6,66.4,63.6z"/>
</g>
</svg>
