<?xml version="1.0" encoding="utf-8"?>
<!-- Generator: Adobe Illustrator 27.0.0, SVG Export Plug-In . SVG Version: 6.00 Build 0)  -->
<svg version="1.1" id="Layer_1" xmlns="http://www.w3.org/2000/svg" xmlns:xlink="http://www.w3.org/1999/xlink" x="0px" y="0px"
	 viewBox="0 0 100 100" style="enable-background:new 0 0 100 100;" xml:space="preserve">
<style type="text/css">
	.st0{fill:#FFFFFF;}
</style>
<path id="Icon" class="st0" d="M32.9,98.7c3.4,0,4.4-1.3,4.4-3.1c0-1.7,0-5.5-0.1-10.8c-17.9,3.8-21.7-8.5-21.7-8.5
	c-2.9-7.3-7.2-9.3-7.2-9.3c-5.8-3.9,0.4-3.8,0.4-3.8c6.4,0.4,9.9,6.5,9.9,6.5c5.8,9.7,15,6.9,18.7,5.2c0.3-3.2,1.7-6.3,4.1-8.5
	c-14.3-1.6-29.3-7-29.3-31.3c-0.1-6.3,2.3-12.4,6.7-17c-0.7-1.6-2.9-8,0.5-16.8c0,0,5.4-1.7,17.7,6.5c10.6-2.8,21.6-2.8,32.2,0
	c12.2-8.2,17.7-6.5,17.7-6.5c3.4,8.7,1.3,15.1,0.7,16.8c4.3,4.6,6.7,10.7,6.6,17c0,24.3-15,29.6-29.4,31.2c2.2,1.9,4.3,5.8,4.3,11.7
	c0,8.5-0.1,15.3-0.1,17.3c0,1.6,0.7,3,4.4,3L32.9,98.7z"/>
</svg>
