<?xml version="1.0" encoding="utf-8"?>
<!-- Generator: Adobe Illustrator 27.0.0, SVG Export Plug-In . SVG Version: 6.00 Build 0)  -->
<svg version="1.1" id="Layer_1" xmlns="http://www.w3.org/2000/svg" xmlns:xlink="http://www.w3.org/1999/xlink" x="0px" y="0px"
	 viewBox="0 0 678.5 100" style="enable-background:new 0 0 678.5 100;" xml:space="preserve">
<style type="text/css">
	.st0{fill:#FFFFFF;}
	.st1{fill:#EF64E1;}
</style>
<g>
	<path class="st0" d="M162.6,67.2h-11.3v19.4h-20.6v-73H164c19.9,0,32.4,10.3,32.4,27c0,10.7-5.2,18.7-14.3,23l15.7,22.9h-22.1
		L162.6,67.2z M162.8,29.9h-11.5v21.4h11.5c8.6,0,12.8-4,12.8-10.6C175.6,33.9,171.3,29.9,162.8,29.9z"/>
	<path class="st0" d="M267.2,72.5h-30.9l-5.7,14.2h-21.1l32.2-73h20.3l32.3,73h-21.5L267.2,72.5z M261.1,57.2l-9.4-23.4l-9.4,23.4
		H261.1z"/>
	<path class="st0" d="M342.5,67.2h-11.3v19.4h-20.6v-73H344c19.9,0,32.4,10.3,32.4,27c0,10.7-5.2,18.7-14.3,23l15.7,22.9h-22.1
		L342.5,67.2z M342.8,29.9h-11.5v21.4h11.5c8.6,0,12.8-4,12.8-10.6C355.6,33.9,351.3,29.9,342.8,29.9z"/>
	<path class="st0" d="M456.8,70.7v16h-58.6v-73h57.3v16h-36.8v12.3h32.4v15.4h-32.4v13.3H456.8z"/>
	<path class="st0" d="M544.5,40.7c0,16.6-12.5,26.9-32.4,26.9h-12.7v19.1h-20.6v-73h33.4C532,13.6,544.5,24,544.5,40.7z M523.7,40.7
		c0-6.8-4.3-10.7-12.8-10.7h-11.5v21.4h11.5C519.4,51.3,523.7,47.3,523.7,40.7z"/>
	<path class="st0" d="M565,13.6h20.6v73H565V13.6z"/>
	<path class="st0" d="M607,50.1c0-22.2,17-38,40.2-38c13.5,0,24.3,4.9,31.4,13.8l-13.1,11.9c-4.6-5.5-10.2-8.6-17.2-8.6
		c-12,0-20.3,8.3-20.3,20.9c0,12.5,8.3,20.9,20.3,20.9c7,0,12.6-3,17.2-8.6l13.1,11.9c-7.1,8.9-17.9,13.8-31.4,13.8
		C624,88.1,607,72.4,607,50.1z"/>
</g>
<path class="st0" d="M36.4,43.9H8.6c-3.5,0-6.3-2.8-6.3-6.3V9.7c0-3.5,2.8-6.3,6.3-6.3h27.9c3.5,0,6.3,2.8,6.3,6.3v27.9
	C42.8,41,39.9,43.9,36.4,43.9z"/>
<path class="st0" d="M90.8,43.9H62.9c-3.5,0-6.3-2.8-6.3-6.3V9.7c0-3.5,2.8-6.3,6.3-6.3h27.9c3.5,0,6.3,2.8,6.3,6.3v27.9
	C97.1,41,94.3,43.9,90.8,43.9z"/>
<path class="st0" d="M36.4,99.1H8.6c-3.5,0-6.3-2.8-6.3-6.3V64.9c0-3.5,2.8-6.3,6.3-6.3h27.9c3.5,0,6.3,2.8,6.3,6.3v27.9
	C42.8,96.2,39.9,99.1,36.4,99.1z"/>
<path class="st1" d="M90.8,99.1H62.9c-3.5,0-6.3-2.8-6.3-6.3V64.9c0-3.5,2.8-6.3,6.3-6.3h27.9c3.5,0,6.3,2.8,6.3,6.3v27.9
	C97.1,96.2,94.3,99.1,90.8,99.1z"/>
</svg>
