<?xml version="1.0" encoding="utf-8"?>
<!-- Generator: Adobe Illustrator 27.0.0, SVG Export Plug-In . SVG Version: 6.00 Build 0)  -->
<svg version="1.1" id="Layer_1" xmlns="http://www.w3.org/2000/svg" xmlns:xlink="http://www.w3.org/1999/xlink" x="0px" y="0px"
	 viewBox="0 0 100 100" style="enable-background:new 0 0 100 100;" xml:space="preserve">
<style type="text/css">
	.st0{fill:#FFFFFF;}
</style>
<path class="st0" d="M91.5,20.1l7.9-7.5v-1.6H72.1L52.6,59.3L30.5,10.9H1.9v1.6l9.2,11.1c0.9,0.8,1.4,2,1.2,3.2v43.5
	c0.3,1.6-0.2,3.2-1.3,4.3L0.6,87.3v1.6H30v-1.6L19.7,74.7c-1.1-1.1-1.7-2.7-1.4-4.3V32.8L44,88.9h3l22.2-56.2v44.8
	c0,1.2,0,1.4-0.8,2.2l-8,7.7v1.7h38.7v-1.6l-7.7-7.5c-0.7-0.5-1-1.4-0.9-2.2V22.3C90.5,21.5,90.8,20.6,91.5,20.1L91.5,20.1z"/>
</svg>
