<?xml version="1.0" encoding="utf-8"?>
<!-- Generator: Adobe Illustrator 27.0.0, SVG Export Plug-In . SVG Version: 6.00 Build 0)  -->
<svg version="1.1" id="Layer_1" xmlns="http://www.w3.org/2000/svg" xmlns:xlink="http://www.w3.org/1999/xlink" x="0px" y="0px"
	 viewBox="0 0 100 100" style="enable-background:new 0 0 100 100;" xml:space="preserve">
<style type="text/css">
	.st0{fill:#FFFFFF;}
</style>
<g>
	<g>
		<path class="st0" d="M99.3,19.4c-3.7,1.6-7.6,2.7-11.6,3.2c4.2-2.5,7.4-6.4,8.9-11.2c-3.9,2.3-8.2,4-12.8,4.9
			c-3.7-3.9-9-6.4-14.8-6.4c-11.2,0-20.2,9.1-20.2,20.2c0,1.6,0.1,3.1,0.5,4.6C32.4,34,17.6,25.9,7.6,13.6c-1.7,3-2.8,6.5-2.8,10.2
			c0,7,3.6,13.2,9,16.8c-3.2-0.1-6.4-1-9.1-2.5c0,0.1,0,0.1,0,0.2c0,9.8,7,18,16.2,19.9c-1.6,0.4-3.4,0.7-5.3,0.7
			c-1.3,0-2.6-0.1-3.8-0.3c2.6,8,10,13.9,18.9,14.1C23.7,78,15,81.3,5.5,81.3c-1.7,0-3.2-0.1-4.8-0.3c9,5.8,19.6,9.1,31,9.1
			c37.2,0,57.5-30.8,57.5-57.5c0-0.9,0-1.8-0.1-2.6C93.2,27.1,96.5,23.5,99.3,19.4z"/>
	</g>
</g>
</svg>
